<?xml version="1.0" standalone="no"?><!DOCTYPE svg PUBLIC "-//W3C//DTD SVG 1.1//EN" "http://www.w3.org/Graphics/SVG/1.1/DTD/svg11.dtd"><svg viewBox="0 0 486 546" width="60.00000000000001%" height="60.00000000000001%" version="1.1" xmlns="http://www.w3.org/2000/svg" xmlns:xlink="http://www.w3.org/1999/xlink" style="display:block;height:221.391px;min-height:auto;min-width:auto;width:330px;perspective-origin:165px 110.688px;transform-origin:165px 110.688px;"><defs id="SvgjsDefs1016" style="height:auto;overflow-x:visible;overflow-y:visible;width:auto;perspective-origin:0px 0px;transform-origin:0px 0px;"/><g id="SvgjsG1017" featurekey="root" fill="#d9d9d9" style="height:auto;overflow-x:visible;overflow-y:visible;width:auto;perspective-origin:0px 0px;transform-origin:0px 0px;fill:rgb(217, 217, 217);"/><g id="SvgjsG1018" featurekey="container1" fill="#1d1d1d" transform="matrix(8.98852952380539,0,0,8.98852952380539,20.000066138012606,20.037515473801086)" style="height:auto;overflow-x:visible;overflow-y:visible;width:auto;perspective-origin:0px 0px;transform:matrix(8.98853, 0, 0, 8.98853, 20.0001, 20.0375);transform-origin:0px 0px;fill:rgb(29, 29, 29);">   <title xmlns="http://www.w3.org/2000/svg" style="height:auto;overflow-x:visible;overflow-y:visible;width:auto;perspective-origin:50% 50%;transform-origin:0px 0px;fill:rgb(29, 29, 29);">Untitled-1</title>   <path xmlns="http://www.w3.org/2000/svg" d="M23.11,55.78L1.69,43.41A3.39,3.39,0,0,1,0,40.48V15.75a3.39,3.39,0,0,1,1.69-2.94L23.11,0.45a3.39,3.39,0,0,1,3.39,0L47.91,12.82a3.39,3.39,0,0,1,1.69,2.94V40.48a3.39,3.39,0,0,1-1.69,2.94L26.5,55.78A3.39,3.39,0,0,1,23.11,55.78Z" style="height:auto;overflow-x:visible;overflow-y:visible;width:auto;perspective-origin:0px 0px;transform-origin:0px 0px;fill:rgb(29, 29, 29);d:path(&quot;M 23.11 55.78 L 1.69 43.41 A 3.39 3.39 0 0 1 0 40.48 V 15.75 A 3.39 3.39 0 0 1 1.69 12.81 L 23.11 0.45 A 3.39 3.39 0 0 1 26.5 0.45 L 47.91 12.82 A 3.39 3.39 0 0 1 49.6 15.76 V 40.48 A 3.39 3.39 0 0 1 47.91 43.42 L 26.5 55.78 A 3.39 3.39 0 0 1 23.11 55.78 Z&quot;);"/> </g><g id="SvgjsG1019" featurekey="text1" fill="#d9d9d9" transform="matrix(22.655671291058795,0,0,22.655671291058795,158.87546404745956,-21.93402774635277)" style="height:auto;overflow-x:visible;overflow-y:visible;width:auto;perspective-origin:0px 0px;transform:matrix(22.6557, 0, 0, 22.6557, 158.875, -21.934);transform-origin:0px 0px;fill:rgb(217, 217, 217);"><path d="M3 8 l0 4.22 l2.84 0 l0 2 l-2.84 0 l0 5.78 l-2.2 0 l0 -14 l5.82 0 l0 2 l-3.62 0 z" style="height:auto;overflow-x:visible;overflow-y:visible;width:auto;perspective-origin:0px 0px;transform-origin:0px 0px;fill:rgb(217, 217, 217);d:path(&quot;M 3 8 L 3 12.22 L 5.84 12.22 L 5.84 14.22 L 3 14.22 L 3 20 L 0.8 20 L 0.8 6 L 6.62 6 L 6.62 8 L 3 8 Z&quot;);"/></g></svg>