<?xml version="1.0" standalone="no"?><!DOCTYPE svg PUBLIC "-//W3C//DTD SVG 1.1//EN" "http://www.w3.org/Graphics/SVG/1.1/DTD/svg11.dtd"><svg viewBox="0 0 364 106" width="60.00000000000001%" height="60.00000000000001%" version="1.1" xmlns="http://www.w3.org/2000/svg" xmlns:xlink="http://www.w3.org/1999/xlink" style="display:block;height:221.391px;min-height:auto;min-width:auto;width:330px;perspective-origin:165px 110.688px;transform-origin:165px 110.688px;"><defs id="SvgjsDefs1011" style="height:auto;overflow-x:visible;overflow-y:visible;width:auto;perspective-origin:0px 0px;transform-origin:0px 0px;"/><g id="SvgjsG1012" featurekey="root" fill="#d9d9d9" style="height:auto;overflow-x:visible;overflow-y:visible;width:auto;perspective-origin:0px 0px;transform-origin:0px 0px;fill:rgb(217, 217, 217);"/><g id="SvgjsG1013" featurekey="symbol1" fill="#1d1d1d" transform="matrix(4.666666666666667,0,0,4.666666666666667,7.666666666666666,14.333333333333332)" style="height:auto;overflow-x:visible;overflow-y:visible;width:auto;perspective-origin:0px 0px;transform:matrix(4.66667, 0, 0, 4.66667, 7.66667, 14.3333);transform-origin:0px 0px;fill:rgb(29, 29, 29);"><title xmlns="http://www.w3.org/2000/svg" style="height:auto;overflow-x:visible;overflow-y:visible;width:auto;perspective-origin:50% 50%;transform-origin:0px 0px;fill:rgb(29, 29, 29);">tick</title><desc xmlns="http://www.w3.org/2000/svg" style="height:auto;overflow-x:visible;overflow-y:visible;width:auto;perspective-origin:50% 50%;transform-origin:0px 0px;fill:rgb(29, 29, 29);">Created with Sketch.</desc><g xmlns="http://www.w3.org/2000/svg" stroke="none" stroke-width="1" fill="none" fill-rule="evenodd" xmlns:sketch="http://www.bohemiancoding.com/sketch/ns" sketch:type="MSPage" style="height:auto;overflow-x:visible;overflow-y:visible;width:auto;perspective-origin:0px 0px;transform-origin:0px 0px;fill:none;fill-rule:evenodd;"><g sketch:type="MSArtboardGroup" fill="#1d1d1d" style="height:auto;overflow-x:visible;overflow-y:visible;width:auto;perspective-origin:0px 0px;transform-origin:0px 0px;fill:rgb(29, 29, 29);fill-rule:evenodd;"><path d="M6,10 L2.5,6.5 L0.5,8.5 L6,14 L15.5,4.5 L13.5,2.5 L6,10 Z" sketch:type="MSShapeGroup" style="height:auto;overflow-x:visible;overflow-y:visible;width:auto;perspective-origin:0px 0px;transform-origin:0px 0px;fill:rgb(29, 29, 29);fill-rule:evenodd;d:path(&quot;M 6 10 L 2.5 6.5 L 0.5 8.5 L 6 14 L 15.5 4.5 L 13.5 2.5 L 6 10 Z&quot;);"/></g></g></g><g id="SvgjsG1014" featurekey="text1" fill="#000000" transform="matrix(4.121788088258906,0,0,4.121788088258906,96.70256972593505,-14.071237168101806)" style="height:auto;overflow-x:visible;overflow-y:visible;width:auto;perspective-origin:0px 0px;transform:matrix(4.12179, 0, 0, 4.12179, 96.7026, -14.0712);transform-origin:0px 0px;"><path d="M3 8 l0 4.22 l2.84 0 l0 2 l-2.84 0 l0 5.78 l-2.2 0 l0 -14 l5.82 0 l0 2 l-3.62 0 z M9.7 9.22 l0 7.56 c0 1 0.44 1.38 1.14 1.38 s1.14 -0.38 1.14 -1.38 l0 -7.56 c0 -1 -0.44 -1.38 -1.14 -1.38 s-1.14 0.38 -1.14 1.38 z M7.5 16.64 l0 -7.28 c0 -2.24 1.18 -3.52 3.34 -3.52 s3.34 1.28 3.34 3.52 l0 7.28 c0 2.24 -1.18 3.52 -3.34 3.52 s-3.34 -1.28 -3.34 -3.52 z M22.44 20 l-2.24 0 c-0.12 -0.36 -0.2 -0.58 -0.2 -1.72 l0 -2.2 c0 -1.3 -0.44 -1.78 -1.44 -1.78 l-0.76 0 l0 5.7 l-2.2 0 l0 -14 l3.32 0 c2.28 0 3.26 1.06 3.26 3.22 l0 1.1 c0 1.44 -0.46 2.36 -1.44 2.82 l0 0.04 c1.1 0.46 1.46 1.5 1.46 2.96 l0 2.16 c0 0.68 0.02 1.18 0.24 1.7 z M18.86 8 l-1.06 0 l0 4.3 l0.86 0 c0.82 0 1.32 -0.36 1.32 -1.48 l0 -1.38 c0 -1 -0.34 -1.44 -1.12 -1.44 z M25.840000000000003 8 l0 3.9 l3.02 0 l0 2 l-3.02 0 l0 4.1 l3.8 0 l0 2 l-6 0 l0 -14 l6 0 l0 2 l-3.8 0 z M30.720000000000002 9.36 c0 -2.24 1.1 -3.52 3.24 -3.52 s3.24 1.28 3.24 3.52 l0 0.44 l-2.08 0 l0 -0.58 c0 -1 -0.4 -1.38 -1.1 -1.38 s-1.1 0.38 -1.1 1.38 c0 1.02 0.44 1.78 1.88 3.04 c1.84 1.62 2.42 2.78 2.42 4.38 c0 2.24 -1.12 3.52 -3.28 3.52 s-3.28 -1.28 -3.28 -3.52 l0 -0.86 l2.08 0 l0 1 c0 1 0.44 1.36 1.14 1.36 s1.14 -0.36 1.14 -1.36 c0 -1.02 -0.44 -1.78 -1.88 -3.04 c-1.84 -1.62 -2.42 -2.78 -2.42 -4.38 z M38.480000000000004 20 l0 -14 l2.2 0 l0 14 l-2.2 0 z M45.580000000000005 14.2 l0 -2 l3.08 0 l0 4.44 c0 2.24 -1.12 3.52 -3.28 3.52 s-3.28 -1.28 -3.28 -3.52 l0 -7.28 c0 -2.24 1.12 -3.52 3.28 -3.52 s3.28 1.28 3.28 3.52 l0 1.36 l-2.08 0 l0 -1.5 c0 -1 -0.44 -1.38 -1.14 -1.38 s-1.14 0.38 -1.14 1.38 l0 7.56 c0 1 0.44 1.36 1.14 1.36 s1.14 -0.36 1.14 -1.36 l0 -2.58 l-1 0 z M52.28 14 l0 6 l-2.2 0 l0 -14 l2.2 0 l0 6 l2.5 0 l0 -6 l2.24 0 l0 14 l-2.24 0 l0 -6 l-2.5 0 z M57.98 8 l0 -2 l6.8 0 l0 2 l-2.3 0 l0 12 l-2.2 0 l0 -12 l-2.3 0 z" style="height:auto;overflow-x:visible;overflow-y:visible;width:auto;perspective-origin:0px 0px;transform-origin:0px 0px;d:path(&quot;M 3 8 L 3 12.22 L 5.84 12.22 L 5.84 14.22 L 3 14.22 L 3 20 L 0.8 20 L 0.8 6 L 6.62 6 L 6.62 8 L 3 8 Z M 9.7 9.22 L 9.7 16.78 C 9.7 17.78 10.14 18.16 10.84 18.16 S 11.98 17.78 11.98 16.78 L 11.98 9.22 C 11.98 8.22 11.54 7.84 10.84 7.84 S 9.7 8.22 9.7 9.22 Z M 7.5 16.64 L 7.5 9.36 C 7.5 7.12 8.68 5.84 10.84 5.84 S 14.18 7.12 14.18 9.36 L 14.18 16.64 C 14.18 18.88 13 20.16 10.84 20.16 S 7.5 18.88 7.5 16.64 Z M 22.44 20 L 20.2 20 C 20.08 19.64 20 19.42 20 18.28 L 20 16.08 C 20 14.78 19.56 14.3 18.56 14.3 L 17.8 14.3 L 17.8 20 L 15.6 20 L 15.6 6 L 18.92 6 C 21.2 6 22.18 7.06 22.18 9.22 L 22.18 10.32 C 22.18 11.76 21.72 12.68 20.74 13.14 L 20.74 13.18 C 21.84 13.64 22.2 14.68 22.2 16.14 L 22.2 18.3 C 22.2 18.98 22.22 19.48 22.44 20 Z M 18.86 8 L 17.8 8 L 17.8 12.3 L 18.66 12.3 C 19.48 12.3 19.98 11.94 19.98 10.82 L 19.98 9.44 C 19.98 8.44 19.64 8 18.86 8 Z M 25.84 8 L 25.84 11.9 L 28.86 11.9 L 28.86 13.9 L 25.84 13.9 L 25.84 18 L 29.64 18 L 29.64 20 L 23.64 20 L 23.64 6 L 29.64 6 L 29.64 8 L 25.84 8 Z M 30.72 9.36 C 30.72 7.12 31.82 5.84 33.96 5.84 S 37.2 7.12 37.2 9.36 L 37.2 9.8 L 35.12 9.8 L 35.12 9.22 C 35.12 8.22 34.72 7.84 34.02 7.84 S 32.92 8.22 32.92 9.22 C 32.92 10.24 33.36 11 34.8 12.26 C 36.64 13.88 37.22 15.04 37.22 16.64 C 37.22 18.88 36.1 20.16 33.94 20.16 S 30.66 18.88 30.66 16.64 L 30.66 15.78 L 32.74 15.78 L 32.74 16.78 C 32.74 17.78 33.18 18.14 33.88 18.14 S 35.02 17.78 35.02 16.78 C 35.02 15.76 34.58 15 33.14 13.74 C 31.3 12.12 30.72 10.96 30.72 9.36 Z M 38.48 20 L 38.48 6 L 40.68 6 L 40.68 20 L 38.48 20 Z M 45.58 14.2 L 45.58 12.2 L 48.66 12.2 L 48.66 16.64 C 48.66 18.88 47.54 20.16 45.38 20.16 S 42.1 18.88 42.1 16.64 L 42.1 9.36 C 42.1 7.12 43.22 5.84 45.38 5.84 S 48.66 7.12 48.66 9.36 L 48.66 10.72 L 46.58 10.72 L 46.58 9.22 C 46.58 8.22 46.14 7.84 45.44 7.84 S 44.3 8.22 44.3 9.22 L 44.3 16.78 C 44.3 17.78 44.74 18.14 45.44 18.14 S 46.58 17.78 46.58 16.78 L 46.58 14.2 L 45.58 14.2 Z M 52.28 14 L 52.28 20 L 50.08 20 L 50.08 6 L 52.28 6 L 52.28 12 L 54.78 12 L 54.78 6 L 57.02 6 L 57.02 20 L 54.78 20 L 54.78 14 L 52.28 14 Z M 57.98 8 L 57.98 6 L 64.78 6 L 64.78 8 L 62.48 8 L 62.48 20 L 60.28 20 L 60.28 8 L 57.98 8 Z&quot;);"/></g><g id="SvgjsG1015" featurekey="text3" fill="#1d1d1d" transform="matrix(0.9318445062204725,0,0,0.9318445062204725,98.88178654810163,74.81201348858956)" style="height:auto;overflow-x:visible;overflow-y:visible;width:auto;perspective-origin:0px 0px;transform:matrix(0.931845, 0, 0, 0.931845, 98.8818, 74.812);transform-origin:0px 0px;fill:rgb(29, 29, 29);"><path d="M5.9 10 c3.14 0 5.06 1.92 5.06 4.62 s-1.92 4.5 -5.06 4.5 l-2.5 0 l0 4.88 l-2.2 0 l0 -14 l4.7 0 z M5.8 17.2 c1.78 0 2.96 -0.84 2.96 -2.58 s-1.18 -2.58 -2.96 -2.58 l-2.4 0 l0 5.16 l2.4 0 z M14.92 9.86 l0 14.14 l-2.16 0 l0 -14.14 l2.16 0 z M21.9 13.42 c1.88 0 3.12 1.12 3.38 1.8 l0 -1.62 l2.16 0 l0 10.4 l-2.16 0 l0 -1.72 c-0.26 0.84 -1.5 1.92 -3.38 1.92 c-2.36 0 -5.18 -1.76 -5.18 -5.4 c0 -3.58 2.82 -5.38 5.18 -5.38 z M22.18 15.34 c-1.62 0 -3.36 1.16 -3.36 3.46 c0 2.32 1.74 3.48 3.36 3.48 s3.2 -1.14 3.2 -3.48 c0 -2.32 -1.58 -3.46 -3.2 -3.46 z M35.36 13.44 c2 0 3.96 1.3 3.96 4.54 l0 6.02 l-2.16 0 l0 -5.9 c0 -1.98 -0.94 -2.76 -2.28 -2.76 c-1.72 0 -2.84 1.6 -3.08 2.62 l0 6.04 l-2.16 0 l0 -10.4 l2.16 0 l0 2.2 c0.2 -0.64 1.4 -2.36 3.56 -2.36 z  M52.62 15.4 l-2.2 0 l0 5.82 c0 0.56 0.2 1 0.84 1 c0.54 0 0.92 -0.1 1.36 -0.28 l0 1.82 c-0.44 0.22 -1.02 0.36 -1.92 0.36 c-1.3 0 -2.44 -0.52 -2.44 -2.82 l0 -5.9 l-1.44 0 l0 -1.8 l1.44 0 l0 -2.44 l2.16 0 l0 2.44 l2.2 0 l0 1.8 z M60.14 13.44 c2 0 3.96 1.3 3.96 4.54 l0 6.02 l-2.16 0 l0 -5.9 c0 -1.98 -0.94 -2.76 -2.28 -2.76 c-1.72 0 -2.84 1.6 -3.08 2.62 l0 6.04 l-2.16 0 l0 -14.14 l2.16 0 l0 5.94 c0.2 -0.64 1.4 -2.36 3.56 -2.36 z M71.08 13.42 c2.36 0 5.56 1.8 5.06 6.16 l-8.28 0 c0.32 1.86 1.8 2.78 3.48 2.78 c1.38 0 2.12 -0.36 2.88 -0.96 l1.22 1.16 c-0.92 1.04 -2.24 1.64 -4.16 1.64 c-2.64 0 -5.58 -1.8 -5.58 -5.38 c0 -3.6 3.02 -5.4 5.38 -5.4 z M71.08 15.28 c-1.34 0 -2.84 0.9 -3.2 2.72 l6.36 0 c-0.24 -1.82 -1.82 -2.72 -3.16 -2.72 z  M89.72 13.44 c2 0 3.96 1.3 3.96 4.54 l0 6.02 l-2.16 0 l0 -5.9 c0 -1.98 -0.94 -2.76 -2.28 -2.76 c-1.72 0 -2.84 1.6 -3.08 2.62 l0 6.04 l-2.16 0 l0 -10.4 l2.16 0 l0 2.2 c0.2 -0.64 1.4 -2.36 3.56 -2.36 z M100.66000000000001 13.42 c2.36 0 5.56 1.8 5.06 6.16 l-8.28 0 c0.32 1.86 1.8 2.78 3.48 2.78 c1.38 0 2.12 -0.36 2.88 -0.96 l1.22 1.16 c-0.92 1.04 -2.24 1.64 -4.16 1.64 c-2.64 0 -5.58 -1.8 -5.58 -5.38 c0 -3.6 3.02 -5.4 5.38 -5.4 z M100.66000000000001 15.28 c-1.34 0 -2.84 0.9 -3.2 2.72 l6.36 0 c-0.24 -1.82 -1.82 -2.72 -3.16 -2.72 z M115.06000000000002 24 l-2.74 -3.74 l-2.74 3.74 l-2.5 0 l4 -5.32 l-3.7 -5.08 l2.46 0 l2.48 3.5 l2.48 -3.5 l2.46 0 l-3.7 5.08 l4 5.32 l-2.5 0 z M124.56000000000003 15.4 l-2.2 0 l0 5.82 c0 0.56 0.2 1 0.84 1 c0.54 0 0.92 -0.1 1.36 -0.28 l0 1.82 c-0.44 0.22 -1.02 0.36 -1.92 0.36 c-1.3 0 -2.44 -0.52 -2.44 -2.82 l0 -5.9 l-1.44 0 l0 -1.8 l1.44 0 l0 -2.44 l2.16 0 l0 2.44 l2.2 0 l0 1.8 z  M137.38000000000002 16.38 c-0.36 -0.8 -0.94 -1.22 -1.72 -1.22 c-0.8 0 -1.4 0.48 -1.4 1.14 c0 0.6 0.34 1.02 1.18 1.32 l1.14 0.4 c1.64 0.58 3 1.2 3 3.1 c0 2.02 -1.98 3.1 -3.9 3.1 c-1.84 0 -3.52 -1.06 -3.92 -2.84 l1.72 -0.52 c0.3 0.94 1.08 1.62 2.2 1.62 c0.92 0 1.76 -0.54 1.76 -1.36 c0 -0.66 -0.46 -1.06 -1.34 -1.38 l-1.18 -0.42 c-1.92 -0.68 -2.76 -1.72 -2.76 -3.04 c0 -1.74 1.56 -2.86 3.42 -2.86 c1.8 0 3.04 0.98 3.6 2.46 z M146.58 15.4 l-2.2 0 l0 5.82 c0 0.56 0.2 1 0.84 1 c0.54 0 0.92 -0.1 1.36 -0.28 l0 1.82 c-0.44 0.22 -1.02 0.36 -1.92 0.36 c-1.3 0 -2.44 -0.52 -2.44 -2.82 l0 -5.9 l-1.44 0 l0 -1.8 l1.44 0 l0 -2.44 l2.16 0 l0 2.44 l2.2 0 l0 1.8 z M153.36 13.42 c2.36 0 5.56 1.8 5.06 6.16 l-8.28 0 c0.32 1.86 1.8 2.78 3.48 2.78 c1.38 0 2.12 -0.36 2.88 -0.96 l1.22 1.16 c-0.92 1.04 -2.24 1.64 -4.16 1.64 c-2.64 0 -5.58 -1.8 -5.58 -5.38 c0 -3.6 3.02 -5.4 5.38 -5.4 z M153.36 15.28 c-1.34 0 -2.84 0.9 -3.2 2.72 l6.36 0 c-0.24 -1.82 -1.82 -2.72 -3.16 -2.72 z M165.82 13.42 c2.36 0 5.18 1.8 5.18 5.38 c0 3.64 -2.82 5.4 -5.18 5.4 c-1.88 0 -3.12 -1.08 -3.38 -1.92 l0 5.52 l-2.16 0 l0 -6.34 l0 -7.86 l2.16 0 l0 1.62 c0.26 -0.68 1.5 -1.8 3.38 -1.8 z M165.54000000000002 22.28 c1.62 0 3.36 -1.16 3.36 -3.48 c0 -2.3 -1.74 -3.46 -3.36 -3.46 s-3.2 1.14 -3.2 3.46 c0 2.34 1.58 3.48 3.2 3.48 z" style="height:auto;overflow-x:visible;overflow-y:visible;width:auto;perspective-origin:0px 0px;transform-origin:0px 0px;fill:rgb(29, 29, 29);d:path(&quot;M 5.9 10 C 9.04 10 10.96 11.92 10.96 14.62 S 9.04 19.12 5.9 19.12 L 3.4 19.12 L 3.4 24 L 1.2 24 L 1.2 10 L 5.9 10 Z M 5.8 17.2 C 7.58 17.2 8.76 16.36 8.76 14.62 S 7.58 12.04 5.8 12.04 L 3.4 12.04 L 3.4 17.2 L 5.8 17.2 Z M 14.92 9.86 L 14.92 24 L 12.76 24 L 12.76 9.86 L 14.92 9.86 Z M 21.9 13.42 C 23.78 13.42 25.02 14.54 25.28 15.22 L 25.28 13.6 L 27.44 13.6 L 27.44 24 L 25.28 24 L 25.28 22.28 C 25.02 23.12 23.78 24.2 21.9 24.2 C 19.54 24.2 16.72 22.44 16.72 18.8 C 16.72 15.22 19.54 13.42 21.9 13.42 Z M 22.18 15.34 C 20.56 15.34 18.82 16.5 18.82 18.8 C 18.82 21.12 20.56 22.28 22.18 22.28 S 25.38 21.14 25.38 18.8 C 25.38 16.48 23.8 15.34 22.18 15.34 Z M 35.36 13.44 C 37.36 13.44 39.32 14.74 39.32 17.98 L 39.32 24 L 37.16 24 L 37.16 18.1 C 37.16 16.12 36.22 15.34 34.88 15.34 C 33.16 15.34 32.04 16.94 31.8 17.96 L 31.8 24 L 29.64 24 L 29.64 13.6 L 31.8 13.6 L 31.8 15.8 C 32 15.16 33.2 13.44 35.36 13.44 Z M 52.62 15.4 L 50.42 15.4 L 50.42 21.22 C 50.42 21.78 50.62 22.22 51.26 22.22 C 51.8 22.22 52.18 22.12 52.62 21.94 L 52.62 23.76 C 52.18 23.98 51.6 24.12 50.7 24.12 C 49.4 24.12 48.26 23.6 48.26 21.3 L 48.26 15.4 L 46.82 15.4 L 46.82 13.6 L 48.26 13.6 L 48.26 11.16 L 50.42 11.16 L 50.42 13.6 L 52.62 13.6 L 52.62 15.4 Z M 60.14 13.44 C 62.14 13.44 64.1 14.74 64.1 17.98 L 64.1 24 L 61.94 24 L 61.94 18.1 C 61.94 16.12 61 15.34 59.66 15.34 C 57.94 15.34 56.82 16.94 56.58 17.96 L 56.58 24 L 54.42 24 L 54.42 9.86 L 56.58 9.86 L 56.58 15.8 C 56.78 15.16 57.98 13.44 60.14 13.44 Z M 71.08 13.42 C 73.44 13.42 76.64 15.22 76.14 19.58 L 67.86 19.58 C 68.18 21.44 69.66 22.36 71.34 22.36 C 72.72 22.36 73.46 22 74.22 21.4 L 75.44 22.56 C 74.52 23.6 73.2 24.2 71.28 24.2 C 68.64 24.2 65.7 22.4 65.7 18.82 C 65.7 15.22 68.72 13.42 71.08 13.42 Z M 71.08 15.28 C 69.74 15.28 68.24 16.18 67.88 18 L 74.24 18 C 74 16.18 72.42 15.28 71.08 15.28 Z M 89.72 13.44 C 91.72 13.44 93.68 14.74 93.68 17.98 L 93.68 24 L 91.52 24 L 91.52 18.1 C 91.52 16.12 90.58 15.34 89.24 15.34 C 87.52 15.34 86.4 16.94 86.16 17.96 L 86.16 24 L 84 24 L 84 13.6 L 86.16 13.6 L 86.16 15.8 C 86.36 15.16 87.56 13.44 89.72 13.44 Z M 100.66 13.42 C 103.02 13.42 106.22 15.22 105.72 19.58 L 97.44 19.58 C 97.76 21.44 99.24 22.36 100.92 22.36 C 102.3 22.36 103.04 22 103.8 21.4 L 105.02 22.56 C 104.1 23.6 102.78 24.2 100.86 24.2 C 98.22 24.2 95.28 22.4 95.28 18.82 C 95.28 15.22 98.3 13.42 100.66 13.42 Z M 100.66 15.28 C 99.32 15.28 97.82 16.18 97.46 18 L 103.82 18 C 103.58 16.18 102 15.28 100.66 15.28 Z M 115.06 24 L 112.32 20.26 L 109.58 24 L 107.08 24 L 111.08 18.68 L 107.38 13.6 L 109.84 13.6 L 112.32 17.1 L 114.8 13.6 L 117.26 13.6 L 113.56 18.68 L 117.56 24 L 115.06 24 Z M 124.56 15.4 L 122.36 15.4 L 122.36 21.22 C 122.36 21.78 122.56 22.22 123.2 22.22 C 123.74 22.22 124.12 22.12 124.56 21.94 L 124.56 23.76 C 124.12 23.98 123.54 24.12 122.64 24.12 C 121.34 24.12 120.2 23.6 120.2 21.3 L 120.2 15.4 L 118.76 15.4 L 118.76 13.6 L 120.2 13.6 L 120.2 11.16 L 122.36 11.16 L 122.36 13.6 L 124.56 13.6 L 124.56 15.4 Z M 137.38 16.38 C 137.02 15.58 136.44 15.16 135.66 15.16 C 134.86 15.16 134.26 15.64 134.26 16.3 C 134.26 16.9 134.6 17.32 135.44 17.62 L 136.58 18.02 C 138.22 18.6 139.58 19.22 139.58 21.12 C 139.58 23.14 137.6 24.22 135.68 24.22 C 133.84 24.22 132.16 23.16 131.76 21.38 L 133.48 20.86 C 133.78 21.8 134.56 22.48 135.68 22.48 C 136.6 22.48 137.44 21.94 137.44 21.12 C 137.44 20.46 136.98 20.06 136.1 19.74 L 134.92 19.32 C 133 18.64 132.16 17.6 132.16 16.28 C 132.16 14.54 133.72 13.42 135.58 13.42 C 137.38 13.42 138.62 14.4 139.18 15.88 Z M 146.58 15.4 L 144.38 15.4 L 144.38 21.22 C 144.38 21.78 144.58 22.22 145.22 22.22 C 145.76 22.22 146.14 22.12 146.58 21.94 L 146.58 23.76 C 146.14 23.98 145.56 24.12 144.66 24.12 C 143.36 24.12 142.22 23.6 142.22 21.3 L 142.22 15.4 L 140.78 15.4 L 140.78 13.6 L 142.22 13.6 L 142.22 11.16 L 144.38 11.16 L 144.38 13.6 L 146.58 13.6 L 146.58 15.4 Z M 153.36 13.42 C 155.72 13.42 158.92 15.22 158.42 19.58 L 150.14 19.58 C 150.46 21.44 151.94 22.36 153.62 22.36 C 155 22.36 155.74 22 156.5 21.4 L 157.72 22.56 C 156.8 23.6 155.48 24.2 153.56 24.2 C 150.92 24.2 147.98 22.4 147.98 18.82 C 147.98 15.22 151 13.42 153.36 13.42 Z M 153.36 15.28 C 152.02 15.28 150.52 16.18 150.16 18 L 156.52 18 C 156.28 16.18 154.7 15.28 153.36 15.28 Z M 165.82 13.42 C 168.18 13.42 171 15.22 171 18.8 C 171 22.44 168.18 24.2 165.82 24.2 C 163.94 24.2 162.7 23.12 162.44 22.28 L 162.44 27.8 L 160.28 27.8 L 160.28 21.46 L 160.28 13.6 L 162.44 13.6 L 162.44 15.22 C 162.7 14.54 163.94 13.42 165.82 13.42 Z M 165.54 22.28 C 167.16 22.28 168.9 21.12 168.9 18.8 C 168.9 16.5 167.16 15.34 165.54 15.34 S 162.34 16.48 162.34 18.8 C 162.34 21.14 163.92 22.28 165.54 22.28 Z&quot;);"/></g></svg>