<?xml version="1.0" standalone="no"?>
<!DOCTYPE svg PUBLIC "-//W3C//DTD SVG 20010904//EN"
 "http://www.w3.org/TR/2001/REC-SVG-20010904/DTD/svg10.dtd">
<svg version="1.0" xmlns="http://www.w3.org/2000/svg"
 width="1092.000000pt" height="1092.000000pt" viewBox="0 0 1092.000000 1092.000000"
 preserveAspectRatio="xMidYMid meet">
<metadata>
Created by potrace 1.11, written by Peter Selinger 2001-2013
</metadata>
<g transform="translate(0.000000,1092.000000) scale(0.100000,-0.100000)"
fill="#000000" stroke="none">
<path d="M5466 10523 c-3 -4 -28 -8 -54 -9 -51 -3 -65 -6 -132 -25 -25 -7 -48
-12 -52 -11 -5 1 -8 -2 -8 -8 0 -5 -3 -9 -7 -8 -12 3 -45 -15 -333 -182 -107
-62 -210 -121 -227 -132 -18 -10 -50 -28 -70 -40 -21 -11 -55 -30 -75 -41 -21
-12 -38 -25 -38 -29 0 -5 -4 -7 -9 -4 -5 3 -19 -2 -32 -12 -13 -9 -33 -22 -44
-28 -88 -48 -119 -67 -132 -79 -8 -8 -19 -15 -25 -15 -5 0 -37 -16 -71 -36
-34 -20 -82 -48 -107 -62 -25 -14 -68 -40 -97 -58 -28 -18 -54 -30 -57 -27 -3
4 -6 2 -6 -4 0 -6 -8 -13 -17 -17 -10 -3 -34 -15 -53 -27 -19 -11 -53 -31 -75
-42 -22 -12 -42 -25 -45 -28 -3 -3 -32 -20 -65 -38 -33 -18 -65 -37 -71 -42
-6 -5 -14 -6 -17 -2 -4 3 -7 2 -7 -4 0 -6 -25 -23 -55 -38 -30 -16 -55 -33
-55 -38 0 -6 -3 -8 -6 -4 -4 3 -31 -9 -60 -28 -30 -19 -58 -35 -62 -35 -5 0
-23 -11 -42 -25 -18 -13 -36 -22 -41 -20 -4 3 -9 1 -11 -3 -3 -8 -276 -169
-397 -235 -31 -16 -63 -35 -71 -42 -8 -7 -20 -14 -25 -16 -25 -9 -201 -114
-207 -123 -4 -6 -8 -7 -8 -3 0 5 -13 -1 -29 -12 -16 -12 -34 -21 -40 -21 -6 0
-11 -3 -11 -7 0 -5 -27 -21 -60 -38 -33 -16 -60 -33 -60 -37 0 -4 -5 -8 -10
-8 -6 0 -28 -11 -49 -24 -21 -14 -42 -22 -45 -19 -3 4 -6 1 -6 -5 0 -7 -7 -12
-15 -12 -8 0 -15 -4 -15 -8 0 -4 -12 -13 -28 -19 -15 -7 -49 -26 -77 -43 -27
-17 -61 -36 -75 -43 -14 -6 -28 -16 -32 -22 -5 -6 -8 -6 -8 0 0 6 -3 5 -8 -1
-4 -6 -27 -22 -52 -36 -64 -36 -212 -121 -232 -133 -55 -33 -133 -75 -140 -75
-4 0 -8 -4 -8 -10 0 -5 -4 -10 -9 -10 -14 0 -231 -130 -260 -156 -14 -12 -35
-31 -46 -41 -87 -77 -165 -240 -180 -372 -4 -28 -5 -317 -4 -803 0 -10 0 -119
0 -243 0 -124 0 -231 0 -237 1 -10 0 -374 0 -480 0 -72 0 -471 0 -480 1 -10 0
-374 0 -480 0 -36 0 -468 0 -480 0 -7 0 -301 -1 -653 0 -352 2 -669 5 -705 3
-36 15 -94 27 -130 12 -36 21 -68 20 -72 -1 -5 2 -8 8 -8 5 0 10 -5 10 -11 0
-12 55 -96 79 -120 9 -9 25 -27 37 -40 36 -41 148 -122 156 -113 3 2 11 -2 18
-11 7 -8 19 -15 26 -15 8 0 14 -4 14 -8 0 -4 12 -13 28 -20 15 -6 45 -23 67
-37 22 -13 64 -37 92 -52 29 -15 53 -31 53 -35 0 -4 5 -8 11 -8 6 0 64 -32
129 -70 65 -38 122 -70 125 -70 4 0 19 -8 33 -19 15 -10 44 -28 65 -40 35 -20
67 -38 140 -80 17 -10 56 -32 85 -50 29 -17 57 -31 62 -31 6 0 10 -4 10 -10 0
-5 6 -10 14 -10 8 0 22 -7 30 -16 9 -8 16 -12 16 -8 0 4 8 0 17 -8 10 -9 41
-28 68 -43 28 -14 68 -37 90 -51 22 -13 47 -27 55 -31 8 -3 23 -13 33 -21 9
-8 17 -11 17 -6 0 5 4 5 8 -1 10 -14 41 -33 75 -46 15 -6 27 -15 27 -20 0 -5
4 -9 10 -9 5 0 44 -21 87 -46 43 -25 88 -50 101 -55 12 -5 22 -13 22 -19 0 -5
9 -10 19 -10 11 0 23 -5 26 -11 4 -5 17 -14 28 -19 12 -6 40 -21 62 -34 22
-14 56 -33 75 -44 19 -11 107 -61 195 -112 88 -51 180 -104 205 -118 25 -13
50 -29 56 -33 6 -5 33 -21 60 -36 66 -35 90 -49 154 -88 30 -18 75 -44 100
-57 25 -13 47 -26 50 -29 3 -3 36 -23 75 -45 38 -21 79 -44 90 -51 11 -7 31
-18 45 -25 14 -7 27 -15 30 -18 3 -3 19 -12 35 -20 17 -8 32 -17 35 -20 3 -3
25 -16 50 -29 25 -13 52 -30 61 -37 8 -8 23 -14 31 -14 9 0 18 -4 20 -8 2 -5
35 -26 73 -47 39 -21 72 -42 75 -45 3 -3 21 -14 40 -24 19 -9 56 -30 82 -46
57 -35 135 -80 165 -94 13 -6 23 -14 23 -18 0 -5 6 -8 13 -8 6 -1 57 -27 112
-60 74 -44 103 -56 112 -48 7 6 13 7 13 2 0 -5 4 -4 8 1 6 10 33 26 132 83 19
10 85 48 146 84 61 36 117 68 125 72 8 4 23 12 34 19 11 7 79 46 150 87 72 41
138 80 147 85 10 6 84 48 165 95 80 47 167 96 192 110 25 14 48 27 51 30 5 5
41 26 100 57 19 10 37 21 40 24 3 3 21 14 40 24 19 9 43 25 54 34 10 9 19 14
20 12 1 -5 10 1 81 44 17 10 31 17 31 14 1 -2 10 3 20 12 11 9 45 30 76 47
105 57 253 146 256 154 2 4 7 6 11 3 5 -2 23 7 41 20 19 14 40 25 47 25 7 0
13 5 13 10 0 6 4 10 9 10 11 0 239 130 283 161 15 10 34 19 42 19 8 0 16 4 18
8 2 5 34 26 73 48 91 51 85 47 227 130 68 40 139 80 158 90 19 11 37 22 40 25
5 6 129 75 167 93 13 6 23 14 23 19 0 4 5 7 10 7 6 0 41 19 78 41 37 23 101
60 142 82 41 22 77 43 80 46 3 3 19 13 35 21 17 8 33 19 37 25 4 5 8 6 8 2 0
-4 6 -3 13 3 19 17 129 80 138 80 5 0 9 5 9 11 0 5 4 8 9 4 5 -3 12 -1 15 4 3
5 25 19 48 31 24 12 45 25 48 29 3 3 21 14 40 24 68 34 115 62 118 70 2 4 8 7
13 7 4 0 41 19 81 43 40 24 80 46 88 50 8 4 33 19 55 32 22 14 48 28 58 32 9
3 17 9 17 14 0 5 6 9 14 9 8 0 22 7 30 16 9 8 16 13 16 9 0 -3 13 3 29 14 16
12 34 21 40 21 6 0 11 5 11 10 0 6 6 10 14 10 7 0 24 8 37 19 13 10 53 34 89
53 36 19 90 50 120 68 30 18 75 44 100 58 60 33 87 52 75 52 -6 0 -3 5 5 10 8
5 10 10 5 10 -12 0 -13 139 -2 158 5 6 4 12 0 12 -12 0 -10 133 2 142 7 5 7 8
0 8 -6 0 -10 29 -10 65 0 36 3 65 8 65 4 0 5 6 0 13 -11 18 -10 167 2 167 7 0
7 3 0 8 -12 8 -13 141 -2 160 5 6 4 12 0 12 -12 0 -10 133 2 142 7 5 7 8 0 8
-6 0 -10 29 -10 65 0 36 3 65 8 65 4 0 5 6 0 13 -11 18 -10 167 2 167 7 0 7 3
0 8 -12 8 -13 141 -2 160 5 6 4 12 0 12 -12 0 -10 133 2 142 7 5 7 8 0 8 -6 0
-10 29 -10 65 0 36 3 65 8 65 4 0 5 6 0 13 -11 18 -10 167 2 167 7 0 7 3 0 8
-12 8 -13 141 -2 160 5 6 4 12 0 12 -12 0 -10 133 2 142 7 5 7 8 0 8 -6 0 -10
29 -10 65 0 36 3 65 8 65 4 0 5 6 0 13 -11 18 -10 167 2 167 7 0 7 3 0 8 -12
8 -13 141 -2 160 5 6 4 12 0 12 -12 0 -10 133 2 142 7 5 7 8 0 8 -6 0 -10 29
-10 65 0 36 3 65 8 65 4 0 5 6 0 13 -11 18 -10 167 2 167 7 0 7 3 0 8 -12 8
-13 141 -2 160 5 6 4 12 0 12 -12 0 -10 133 2 142 7 5 7 8 0 8 -6 0 -10 29
-10 65 0 36 3 65 8 65 4 0 5 6 0 13 -11 18 -10 167 2 167 7 0 7 3 0 8 -12 8
-13 141 -2 160 5 6 4 12 0 12 -5 0 -8 31 -8 70 0 40 4 70 10 70 7 0 7 3 0 8
-12 8 -14 202 -2 202 4 0 5 6 0 13 -4 6 -8 32 -9 57 -2 62 -13 129 -26 165
-19 52 -62 140 -70 143 -4 2 -8 10 -8 17 0 22 -131 149 -185 180 -28 16 -52
32 -55 35 -3 3 -24 16 -47 27 -54 28 -87 47 -93 53 -3 3 -25 16 -50 29 -25 14
-47 27 -50 30 -3 4 -16 12 -30 18 -14 7 -47 25 -75 41 -245 142 -327 189 -392
228 -41 24 -78 44 -83 44 -5 0 -10 3 -12 8 -1 4 -19 15 -38 25 -19 10 -53 29
-75 42 -22 14 -47 28 -55 31 -8 4 -39 22 -68 41 -29 18 -58 34 -65 36 -7 1
-14 4 -17 8 -5 5 -52 34 -110 67 -19 11 -105 60 -190 109 -85 49 -166 96 -180
104 -14 8 -33 20 -42 28 -10 8 -18 10 -18 5 0 -5 -4 -4 -8 2 -7 10 -40 30
-162 97 -30 16 -62 35 -70 41 -8 7 -28 18 -45 26 -16 8 -32 18 -35 21 -3 3
-21 14 -40 24 -19 10 -60 32 -90 50 -91 55 -434 252 -497 286 -32 18 -69 40
-82 51 -13 10 -30 18 -37 18 -8 0 -14 5 -14 10 0 6 -4 10 -10 10 -5 0 -63 32
-128 70 -65 39 -124 70 -130 70 -7 0 -12 4 -12 9 0 5 -10 13 -22 17 -13 3 -30
12 -38 19 -8 6 -35 23 -60 36 -25 13 -47 26 -50 29 -5 5 -27 18 -67 39 -10 5
-64 37 -120 70 -57 34 -104 61 -107 61 -2 0 -50 27 -105 60 -56 33 -105 60
-110 60 -5 0 -11 4 -13 8 -4 9 -168 95 -168 88 0 -3 -12 -1 -27 5 -29 11 -68
19 -113 22 -14 1 -30 6 -36 9 -6 4 -14 5 -18 1z"/>
</g>
</svg>
